<svg width="35" height="21" viewBox="0 0 35 21" fill="none" xmlns="http://www.w3.org/2000/svg">
<rect width="35" height="21" fill="#8A1638"/>
<path fill-rule="evenodd" clip-rule="evenodd" d="M21.2696 7.76959L17.5 4L13.7304 7.76959L17.5 11.5392L21.2696 7.76959ZM25.8149 11.4442C26.2672 10.3522 26.5 9.1819 26.5 8H23.0525C23.0525 8.72916 22.9088 9.45118 22.6298 10.1248C22.3508 10.7985 21.9418 11.4106 21.4262 11.9262C20.9106 12.4418 20.2985 12.8508 19.6248 13.1298C18.9512 13.4088 18.2292 13.5525 17.5 13.5525C16.7708 13.5525 16.0488 13.4088 15.3752 13.1298C14.7015 12.8508 14.0894 12.4418 13.5738 11.9262C13.0582 11.4106 12.6492 10.7985 12.3702 10.1248C12.0912 9.45118 11.9475 8.72916 11.9475 8H8.5C8.5 9.1819 8.73279 10.3522 9.18508 11.4441C9.63738 12.5361 10.3003 13.5282 11.136 14.364C11.9718 15.1997 12.9639 15.8626 14.0558 16.3149C15.1478 16.7672 16.3181 17 17.5 17C18.6819 17 19.8522 16.7672 20.9442 16.3149C22.0361 15.8626 23.0282 15.1997 23.864 14.364C24.6997 13.5282 25.3626 12.5361 25.8149 11.4442Z" fill="#02CFB6"/>
</svg>
